<svg xmlns="http://www.w3.org/2000/svg" width="60.011" height="60.011" viewBox="0 0 60.011 60.011"><defs><style>.a{fill:#43c0bc;}</style></defs><path class="a" d="M194.211,154.943h6.035a.938.938,0,0,0,.938-.938V140.42h3.135a.938.938,0,0,0,.933-.842l.529-5.13a.938.938,0,0,0-.933-1.034h-3.664v-2.078c0-.429.136-.461.343-.461h3.245a.938.938,0,0,0,.938-.938v-4.981a.938.938,0,0,0-.934-.938L200.3,124a6.6,6.6,0,0,0-5.661,2.537,7.719,7.719,0,0,0-1.367,4.494v2.383h-1.933a.938.938,0,0,0-.938.938v5.13a.938.938,0,0,0,.938.938h1.933v13.585A.938.938,0,0,0,194.211,154.943Zm-1.933-16.4V135.29h1.933a.938.938,0,0,0,.938-.938v-3.321a5.948,5.948,0,0,1,1-3.383,4.826,4.826,0,0,1,4.146-1.773l3.537.014V129h-2.307a2.157,2.157,0,0,0-2.219,2.337v3.016a.938.938,0,0,0,.938.938h3.563l-.335,3.255h-3.227a.938.938,0,0,0-.938.938v13.585h-4.16V139.482a.938.938,0,0,0-.938-.938Z" transform="translate(-168.086 -109.466)"/><path class="a" d="M51.223,8.789A30.006,30.006,0,1,0,8.789,51.224,30.006,30.006,0,0,0,51.223,8.789ZM49.9,49.9A28.13,28.13,0,1,1,10.115,10.115,28.13,28.13,0,0,1,49.9,49.9Z"/><path class="a" d="M142.217,112.355a.938.938,0,1,0-1.456,1.181,24.38,24.38,0,0,1-35.2,33.521.938.938,0,0,0-1.251,1.4,26.256,26.256,0,0,0,37.9-36.1Z" transform="translate(-91.812 -98.88)"/><path class="a" d="M33.875,58.255A24.38,24.38,0,0,1,74.507,40.083a.938.938,0,0,0,1.251-1.4,26.256,26.256,0,0,0-37.9,36.1A.938.938,0,0,0,39.312,73.6,24.432,24.432,0,0,1,33.875,58.255Z" transform="translate(-28.249 -28.249)"/></svg>