<svg xmlns="http://www.w3.org/2000/svg" width="60.254" height="60.254" viewBox="0 0 60.254 60.254"><defs><style>.a{fill:#43c0bc;}</style></defs><g transform="translate(0 0)"><path class="a" d="M51.43,8.824A30.127,30.127,0,1,0,8.824,51.431,30.127,30.127,0,0,0,51.43,8.824ZM50.1,50.1A28.244,28.244,0,1,1,10.156,10.156,28.244,28.244,0,0,1,50.1,50.1Zm0,0" transform="translate(0 0)"/><path class="a" d="M121.571,89.956a.941.941,0,1,0-1.462,1.186A24.479,24.479,0,0,1,84.771,124.8a.941.941,0,1,0-1.256,1.4,26.362,26.362,0,0,0,38.056-36.246Zm0,0" transform="translate(-70.962 -76.425)"/><path class="a" d="M27.484,51.963a24.479,24.479,0,0,1,40.8-18.246.941.941,0,0,0,1.256-1.4A26.362,26.362,0,0,0,31.481,68.56a.942.942,0,0,0,1.463-1.186,24.53,24.53,0,0,1-5.46-15.411Zm0,0" transform="translate(-21.836 -21.836)"/></g><g transform="translate(15.023 15.023)"><path class="a" d="M125.142,102.125H109.375a7.258,7.258,0,0,0-7.25,7.25v15.766a7.258,7.258,0,0,0,7.25,7.25h15.767a7.258,7.258,0,0,0,7.25-7.25V109.375A7.258,7.258,0,0,0,125.142,102.125Zm5.341,23.017a5.347,5.347,0,0,1-5.341,5.341H109.375a5.347,5.347,0,0,1-5.341-5.341V109.375a5.347,5.347,0,0,1,5.341-5.341h15.767a5.347,5.347,0,0,1,5.341,5.341Z" transform="translate(-102.125 -102.125)"/><path class="a" d="M255.762,139.728a1.162,1.162,0,1,0,1.162,1.162A1.164,1.164,0,0,0,255.762,139.728Z" transform="translate(-232.169 -134.196)"/><path class="a" d="M161.988,154.57a7.418,7.418,0,1,0,7.419,7.418A7.427,7.427,0,0,0,161.988,154.57Zm0,12.928a5.509,5.509,0,1,1,5.509-5.51A5.516,5.516,0,0,1,161.988,167.5Z" transform="translate(-146.855 -146.855)"/></g></svg>