<svg xmlns="http://www.w3.org/2000/svg" width="60.048" height="60.048" viewBox="0 0 60.048 60.048"><defs><style>.a{fill:#43c0bc;}</style></defs><path class="a" d="M51.255,8.794A30.024,30.024,0,1,0,8.794,51.255,30.024,30.024,0,0,0,51.255,8.794ZM49.928,49.928A28.148,28.148,0,1,1,10.121,10.121,28.148,28.148,0,0,1,49.928,49.928Z"/><path class="a" d="M142.24,112.356a.938.938,0,0,0-1.457,1.182,24.4,24.4,0,0,1-35.217,33.542.938.938,0,1,0-1.251,1.4,26.272,26.272,0,0,0,37.925-36.122Z" transform="translate(-91.805 -98.872)"/><path class="a" d="M33.877,58.271A24.395,24.395,0,0,1,74.534,40.088a.938.938,0,0,0,1.252-1.4A26.272,26.272,0,0,0,37.86,74.812a.938.938,0,0,0,1.457-1.182A24.447,24.447,0,0,1,33.877,58.271Z" transform="translate(-28.247 -28.247)"/><path class="a" d="M228.8,224.2h5.814a.938.938,0,0,0,.938-.938V213.234a9.394,9.394,0,0,0-2.163-6.587,7.21,7.21,0,0,0-5.472-2.222,6.734,6.734,0,0,0-4.3,1.365v-.016a.938.938,0,0,0-.938-.938h-5.813a.938.938,0,0,0-.937.981c.073,1.6,0,17.284,0,17.442a.938.938,0,0,0,.938.943h5.813a.938.938,0,0,0,.938-.938v-9.767a3.151,3.151,0,0,1,.123-1.066,2.29,2.29,0,0,1,2.113-1.542c.549,0,2.008,0,2.008,3.018v9.357A.938.938,0,0,0,228.8,224.2Zm-2.946-15.19A4.092,4.092,0,0,0,222,211.72a4.623,4.623,0,0,0-.262,1.775v8.829h-3.932c.013-3.032.049-12.369.014-15.612h3.918v1.538a.938.938,0,0,0,1.726.51,4.821,4.821,0,0,1,4.452-2.459c3.659,0,5.758,2.527,5.758,6.932v9.09H229.74V213.9a5.97,5.97,0,0,0-.846-3.388A3.494,3.494,0,0,0,225.856,209.01Z" transform="translate(-190.605 -180.45)"/><path class="a" d="M144.415,139.941a4.214,4.214,0,1,0-4.266,3.98h.039a3.966,3.966,0,0,0,4.227-3.961C144.415,139.954,144.415,139.948,144.415,139.941Zm-4.227,2.1h-.039a2.068,2.068,0,0,1-2.272-2.084,2.109,2.109,0,0,1,2.349-2.084,2.082,2.082,0,0,1,2.313,2.094A2.11,2.11,0,0,1,140.188,142.045Z" transform="translate(-120.05 -120.05)"/><path class="a" d="M139.857,207.922a.938.938,0,0,0-.938.938v17.489a.938.938,0,0,0,.938.938h5.816a.938.938,0,0,0,.938-.938V208.86a.938.938,0,0,0-.938-.938Zm4.878,17.489H140.8V209.8h3.94Z" transform="translate(-122.626 -183.537)"/></svg>