<svg xmlns="http://www.w3.org/2000/svg" xmlns:xlink="http://www.w3.org/1999/xlink" width="241.365" height="41.584" viewBox="0 0 241.365 41.584"><defs><style>.a{fill:none;}.b{clip-path:url(#a);}.c{fill:#fff;}.d{fill:#43c0bc;}</style><clipPath id="a"><path class="a" d="M0-44.551H241.365V-86.135H0Z" transform="translate(0 86.135)"/></clipPath></defs><g transform="translate(0 86.135)"><g class="b" transform="translate(0 -86.135)"><g transform="translate(0 16.887)"><path class="c" d="M-7-14.857a5.359,5.359,0,0,1-3.075-.913A7.453,7.453,0,0,1-12.25-18v8.362h-1.287v-18.86h1.184v2.676a6.528,6.528,0,0,1,2.174-2.1,5.531,5.531,0,0,1,2.894-.81,5.673,5.673,0,0,1,2.573.591,6.624,6.624,0,0,1,2.033,1.557,7.166,7.166,0,0,1,1.325,2.226,7.232,7.232,0,0,1,.476,2.573,8.024,8.024,0,0,1-.437,2.65,6.831,6.831,0,0,1-1.248,2.213,5.952,5.952,0,0,1-1.943,1.5,5.607,5.607,0,0,1-2.5.553m-.309-1.158A4.548,4.548,0,0,0-5.2-16.5,5.093,5.093,0,0,0-3.58-17.8,5.931,5.931,0,0,0-2.55-19.655a6.461,6.461,0,0,0,.36-2.123,5.938,5.938,0,0,0-.412-2.2,5.881,5.881,0,0,0-1.145-1.839,5.688,5.688,0,0,0-1.711-1.274,4.694,4.694,0,0,0-2.084-.476,4.2,4.2,0,0,0-1.48.3,6.332,6.332,0,0,0-1.479.8,5.575,5.575,0,0,0-1.184,1.145,2.71,2.71,0,0,0-.566,1.364v4.4a6.367,6.367,0,0,0,.849,1.389,6.534,6.534,0,0,0,1.158,1.132,5.211,5.211,0,0,0,1.389.759,4.5,4.5,0,0,0,1.543.27" transform="translate(13.537 28.725)"/></g><g transform="translate(15.746 17.067)"><path class="c" d="M-6.781-1.3A5.369,5.369,0,0,0-9.933-.228a5.322,5.322,0,0,0-1.891,2.792v8.362h-1.287V-2.454h1.235V.84a6.46,6.46,0,0,1,1.84-2.3A4.71,4.71,0,0,1-7.579-2.479q.256-.025.463-.026h.335Z" transform="translate(13.111 2.505)"/></g><g transform="translate(22.925 16.887)"><path class="c" d="M-7-14.857a6.143,6.143,0,0,1-2.611-.553,6.463,6.463,0,0,1-2.072-1.5,6.939,6.939,0,0,1-1.364-2.213,7.273,7.273,0,0,1-.489-2.65,7.171,7.171,0,0,1,.5-2.676,7.143,7.143,0,0,1,1.376-2.213,6.479,6.479,0,0,1,2.072-1.505A6.091,6.091,0,0,1-7-28.725a6,6,0,0,1,2.573.553,6.674,6.674,0,0,1,2.071,1.505A7.009,7.009,0,0,1-.968-24.454a7.171,7.171,0,0,1,.5,2.676,7.1,7.1,0,0,1-.5,2.65,7.119,7.119,0,0,1-1.376,2.213,6.467,6.467,0,0,1-2.071,1.5A6.084,6.084,0,0,1-7-14.857m-5.249-6.869a6,6,0,0,0,.412,2.226,5.81,5.81,0,0,0,1.119,1.814A5.292,5.292,0,0,0-9.06-16.465a4.693,4.693,0,0,0,2.033.45,4.694,4.694,0,0,0,2.033-.45,5.275,5.275,0,0,0,1.672-1.248,6.031,6.031,0,0,0,1.132-1.84A6.076,6.076,0,0,0-1.778-21.8a6.007,6.007,0,0,0-.412-2.226,5.866,5.866,0,0,0-1.132-1.827A5.591,5.591,0,0,0-4.982-27.1,4.507,4.507,0,0,0-7-27.567a4.59,4.59,0,0,0-2.033.463,5.3,5.3,0,0,0-1.659,1.261,6.281,6.281,0,0,0-1.132,1.865,6.043,6.043,0,0,0-.424,2.252" transform="translate(13.537 28.725)"/></g><g transform="translate(37.591 11.457)"><path class="c" d="M-2.013-7.195H-3.891V-8.249h1.878v-.437A6.851,6.851,0,0,1-1.755-10.5a5.181,5.181,0,0,1,.8-1.685,4.351,4.351,0,0,1,1.4-1.235,4.133,4.133,0,0,1,2.071-.489,6.226,6.226,0,0,1,1.3.129,8.284,8.284,0,0,1,1.068.3,4.132,4.132,0,0,1,.772.36,5.217,5.217,0,0,1,.437.3l-.644.9a3,3,0,0,0-1.132-.579,5.783,5.783,0,0,0-1.75-.245,2.9,2.9,0,0,0-1.505.373,3.221,3.221,0,0,0-1.029.952,3.956,3.956,0,0,0-.579,1.3,5.808,5.808,0,0,0-.18,1.415v.463H5.835V5.13H4.548V-7.195H-.726V5.13H-2.013Z" transform="translate(3.891 13.91)"/></g><g transform="translate(50.147 16.887)"><path class="c" d="M-5.816-14.857a8.6,8.6,0,0,1-2.959-.515,6.835,6.835,0,0,1-2.47-1.543l.643-.875a7.518,7.518,0,0,0,2.239,1.441,6.794,6.794,0,0,0,2.547.463A4.884,4.884,0,0,0-3-16.62a2.342,2.342,0,0,0,1.068-2.045,1.9,1.9,0,0,0-.27-1.042,2.165,2.165,0,0,0-.811-.72,6.725,6.725,0,0,0-1.338-.528q-.8-.231-1.852-.489-1.133-.257-1.969-.515a5.279,5.279,0,0,1-1.376-.617,2.383,2.383,0,0,1-.811-.875,2.819,2.819,0,0,1-.27-1.312,3.759,3.759,0,0,1,.386-1.75,3.447,3.447,0,0,1,1.068-1.235,4.9,4.9,0,0,1,1.57-.733,7.086,7.086,0,0,1,1.891-.244,6.9,6.9,0,0,1,2.779.527,4.868,4.868,0,0,1,1.878,1.351l-.72.695A4.082,4.082,0,0,0-3.513-27.31,6.649,6.649,0,0,0-5.791-27.7a6.11,6.11,0,0,0-1.4.154,3.374,3.374,0,0,0-1.145.489,2.411,2.411,0,0,0-.772.862,2.6,2.6,0,0,0-.283,1.248,2.014,2.014,0,0,0,.193.952,1.634,1.634,0,0,0,.617.617,4.555,4.555,0,0,0,1.093.45q.668.193,1.6.425,1.26.308,2.239.591a6.5,6.5,0,0,1,1.634.695,3.049,3.049,0,0,1,1,.978A2.714,2.714,0,0,1-.67-18.794a3.422,3.422,0,0,1-1.4,2.869,6.028,6.028,0,0,1-3.743,1.067" transform="translate(11.245 28.725)"/></g><g transform="translate(62.522 16.887)"><path class="c" d="M-5.816-14.857a8.6,8.6,0,0,1-2.959-.515,6.835,6.835,0,0,1-2.47-1.543l.643-.875a7.518,7.518,0,0,0,2.239,1.441,6.794,6.794,0,0,0,2.547.463A4.884,4.884,0,0,0-3-16.62a2.342,2.342,0,0,0,1.068-2.045,1.9,1.9,0,0,0-.27-1.042,2.165,2.165,0,0,0-.811-.72,6.725,6.725,0,0,0-1.338-.528q-.8-.231-1.852-.489-1.133-.257-1.969-.515a5.279,5.279,0,0,1-1.376-.617,2.383,2.383,0,0,1-.811-.875,2.819,2.819,0,0,1-.27-1.312,3.759,3.759,0,0,1,.386-1.75,3.447,3.447,0,0,1,1.068-1.235,4.9,4.9,0,0,1,1.57-.733,7.086,7.086,0,0,1,1.891-.244,6.9,6.9,0,0,1,2.779.527,4.868,4.868,0,0,1,1.878,1.351l-.72.695A4.082,4.082,0,0,0-3.513-27.31,6.649,6.649,0,0,0-5.791-27.7a6.11,6.11,0,0,0-1.4.154,3.374,3.374,0,0,0-1.145.489,2.411,2.411,0,0,0-.772.862,2.6,2.6,0,0,0-.283,1.248,2.014,2.014,0,0,0,.193.952,1.634,1.634,0,0,0,.617.617,4.555,4.555,0,0,0,1.093.45q.668.193,1.6.425,1.26.308,2.239.591a6.5,6.5,0,0,1,1.634.695,3.049,3.049,0,0,1,1,.978A2.714,2.714,0,0,1-.67-18.794a3.422,3.422,0,0,1-1.4,2.869,6.028,6.028,0,0,1-3.743,1.067" transform="translate(11.245 28.725)"/></g></g><path class="c" d="M157.59-61.87h1.287V-59.5H157.59Zm0,2.367,0,3.036h1.287v13.379H157.59Z" transform="translate(-81.509 -12.55)"/><g class="b" transform="translate(0 -86.135)"><g transform="translate(80.481 16.887)"><path class="c" d="M-7-14.857a6.143,6.143,0,0,1-2.611-.553,6.463,6.463,0,0,1-2.072-1.5,6.939,6.939,0,0,1-1.364-2.213,7.273,7.273,0,0,1-.489-2.65,7.171,7.171,0,0,1,.5-2.676,7.143,7.143,0,0,1,1.376-2.213,6.479,6.479,0,0,1,2.072-1.505A6.091,6.091,0,0,1-7-28.725a6,6,0,0,1,2.573.553,6.674,6.674,0,0,1,2.071,1.505A7.009,7.009,0,0,1-.968-24.454a7.171,7.171,0,0,1,.5,2.676,7.1,7.1,0,0,1-.5,2.65,7.119,7.119,0,0,1-1.376,2.213,6.467,6.467,0,0,1-2.071,1.5A6.084,6.084,0,0,1-7-14.857m-5.249-6.869a6,6,0,0,0,.412,2.226,5.81,5.81,0,0,0,1.119,1.814A5.292,5.292,0,0,0-9.06-16.465a4.694,4.694,0,0,0,2.033.45,4.694,4.694,0,0,0,2.033-.45,5.275,5.275,0,0,0,1.672-1.248,6.031,6.031,0,0,0,1.132-1.84A6.076,6.076,0,0,0-1.778-21.8a6.007,6.007,0,0,0-.412-2.226,5.866,5.866,0,0,0-1.132-1.827A5.591,5.591,0,0,0-4.982-27.1,4.507,4.507,0,0,0-7-27.567a4.59,4.59,0,0,0-2.033.463,5.3,5.3,0,0,0-1.659,1.261,6.281,6.281,0,0,0-1.132,1.865,6.043,6.043,0,0,0-.424,2.252" transform="translate(13.537 28.725)"/></g><g transform="translate(96.638 16.886)"><path class="c" d="M-11.716-14.582H-13v-7.461a7.435,7.435,0,0,0-.733-3.783,2.537,2.537,0,0,0-2.328-1.183,4.837,4.837,0,0,0-1.685.308,5.728,5.728,0,0,0-1.556.875A6.4,6.4,0,0,0-20.566-24.5a5.445,5.445,0,0,0-.8,1.634v8.285h-1.287V-27.961h1.21v3.19a6.292,6.292,0,0,1,1.016-1.4,6.414,6.414,0,0,1,1.363-1.08,6.887,6.887,0,0,1,1.608-.7,6.3,6.3,0,0,1,1.75-.244,3.289,3.289,0,0,1,3.088,1.531,8.747,8.747,0,0,1,.9,4.387Z" transform="translate(22.651 28.193)"/></g><g transform="translate(110.353 16.887)"><path class="c" d="M-4.713-14.857a4.567,4.567,0,0,1-1.724-.322,4.589,4.589,0,0,1-1.4-.875,3.864,3.864,0,0,1-.939-1.312A4,4,0,0,1-9.113-19a3.163,3.163,0,0,1,.411-1.6,3.949,3.949,0,0,1,1.145-1.248,5.683,5.683,0,0,1,1.762-.824,8.187,8.187,0,0,1,2.264-.3,12.516,12.516,0,0,1,2.174.193,10.761,10.761,0,0,1,1.968.528v-1.312A4.167,4.167,0,0,0-.468-26.577,3.886,3.886,0,0,0-3.4-27.7a5.886,5.886,0,0,0-2.071.412A10.609,10.609,0,0,0-7.7-26.1l-.489-.875A8.78,8.78,0,0,1-3.3-28.725a5.121,5.121,0,0,1,3.808,1.4A5.263,5.263,0,0,1,1.9-23.451v6.535q0,.643.566.643v1.158a2.659,2.659,0,0,1-.27.039c-.094.009-.176.013-.244.013a1.046,1.046,0,0,1-.824-.348,1.454,1.454,0,0,1-.36-.836v-1.106A6.016,6.016,0,0,1-1.6-15.5a7.555,7.555,0,0,1-3.113.643m.257-1.029a6.556,6.556,0,0,0,2.74-.566A4.679,4.679,0,0,0,.2-17.945a1.726,1.726,0,0,0,.412-1.029v-2.367a10.382,10.382,0,0,0-1.93-.54,11.814,11.814,0,0,0-2.084-.18,7.115,7.115,0,0,0-1.827.219,4.854,4.854,0,0,0-1.415.6,2.8,2.8,0,0,0-.913.939,2.387,2.387,0,0,0-.322,1.222,3.12,3.12,0,0,0,.257,1.261A2.968,2.968,0,0,0-6.9-16.8a3.43,3.43,0,0,0,1.093.669,3.7,3.7,0,0,0,1.351.244" transform="translate(9.113 28.725)"/></g><g transform="translate(125.378 11.715)"><path class="c" d="M0,0H1.312V16.133a1.627,1.627,0,0,0,.424,1.183,1.555,1.555,0,0,0,1.171.437,4.37,4.37,0,0,0,.682-.064,3.59,3.59,0,0,0,.733-.193l.258,1.029a5.381,5.381,0,0,1-1.081.3,6.376,6.376,0,0,1-1.106.116,2.346,2.346,0,0,1-1.737-.656A2.38,2.38,0,0,1,0,16.518Z"/></g><g transform="translate(131.012 11.715)"><path class="c" d="M-6.891-20.4a5.769,5.769,0,0,1-2.573-.579,6.591,6.591,0,0,1-2.046-1.544,7.064,7.064,0,0,1-1.338-2.213,7.187,7.187,0,0,1-.476-2.586,7.618,7.618,0,0,1,.463-2.65,7.074,7.074,0,0,1,1.286-2.213A6.32,6.32,0,0,1-9.632-33.7a5.37,5.37,0,0,1,2.457-.566,5.189,5.189,0,0,1,1.646.257,6.532,6.532,0,0,1,1.441.682,6.444,6.444,0,0,1,1.21.99,6.882,6.882,0,0,1,.926,1.21v-8.311H-.666v16.982q0,.643.541.643v1.158c-.1.017-.189.03-.257.039a1.635,1.635,0,0,1-.206.013,1.135,1.135,0,0,1-.875-.4,1.237,1.237,0,0,1-.36-.836v-1.492a6.177,6.177,0,0,1-2.2,2.135,5.641,5.641,0,0,1-2.869.8m.231-1.158a4.477,4.477,0,0,0,1.493-.283,5.712,5.712,0,0,0,1.479-.785,5.717,5.717,0,0,0,1.171-1.145,2.728,2.728,0,0,0,.566-1.389v-4.4a5.3,5.3,0,0,0-.81-1.376,6.006,6.006,0,0,0-1.2-1.132A6.108,6.108,0,0,0-5.4-32.825a4.338,4.338,0,0,0-1.492-.283,4.452,4.452,0,0,0-2.11.5,5.251,5.251,0,0,0-1.621,1.312,5.922,5.922,0,0,0-1.029,1.852,6.537,6.537,0,0,0-.36,2.148,5.826,5.826,0,0,0,.411,2.187,5.911,5.911,0,0,0,1.145,1.827,5.549,5.549,0,0,0,1.7,1.261,4.785,4.785,0,0,0,2.1.463" transform="translate(13.324 39.438)"/></g><g transform="translate(146.836 16.887)"><path class="c" d="M-7.084-14.857a6.232,6.232,0,0,1-2.624-.553,6.479,6.479,0,0,1-2.1-1.518,7.167,7.167,0,0,1-1.389-2.226,7.237,7.237,0,0,1-.5-2.7,7.073,7.073,0,0,1,.5-2.663,7.015,7.015,0,0,1,1.376-2.187,6.39,6.39,0,0,1,2.071-1.479,6.2,6.2,0,0,1,2.586-.54,6.24,6.24,0,0,1,2.624.553A6.537,6.537,0,0,1-2.453-26.68a6.839,6.839,0,0,1,1.364,2.187A7.167,7.167,0,0,1-.6-21.856v.322a.7.7,0,0,1-.026.245H-12.358a5.964,5.964,0,0,0,.54,2.148,6.086,6.086,0,0,0,1.171,1.711A5.257,5.257,0,0,0-9.014-16.3a4.817,4.817,0,0,0,1.981.411,4.909,4.909,0,0,0,1.364-.193,5.579,5.579,0,0,0,1.248-.528,4.5,4.5,0,0,0,1.029-.811,3.8,3.8,0,0,0,.707-1.042l1.133.309a4.272,4.272,0,0,1-.836,1.325,5.66,5.66,0,0,1-1.287,1.042,6.567,6.567,0,0,1-1.608.682,6.67,6.67,0,0,1-1.8.244m5.249-7.461a6.081,6.081,0,0,0-.527-2.161A5.781,5.781,0,0,0-3.52-26.165a5.2,5.2,0,0,0-1.634-1.106,4.954,4.954,0,0,0-1.981-.4,4.953,4.953,0,0,0-1.981.4,5.211,5.211,0,0,0-1.634,1.106,5.357,5.357,0,0,0-1.132,1.7,6.52,6.52,0,0,0-.5,2.148Z" transform="translate(13.696 28.725)"/></g></g><g transform="translate(161.154 -74.431)"><path class="d" d="M-17.318-3.546h-6.209V12.565h-3.747V-3.546h-6.209v-3.31h16.165Z" transform="translate(33.483 6.856)"/></g><path class="d" d="M373.086-62.52h3.848v19.793h-3.848Z" transform="translate(-192.968 -12.214)"/><g class="b" transform="translate(0 -86.135)"><g transform="translate(190.84 0.001)"><path class="d" d="M-9.823-6.182v11a4.358,4.358,0,0,1-.485,2.023,5.745,5.745,0,0,1-1.348,1.7,6.692,6.692,0,0,1,1.321,1.7,4.178,4.178,0,0,1,.512,2.022v11.6h2.966V29.63h-8.2a1.372,1.372,0,0,1-.809-.324,1.548,1.548,0,0,1-.432-1.294V14.636a3.691,3.691,0,0,0-.809-2.4,3.229,3.229,0,0,0-1.888-1.213V5.953a1.948,1.948,0,0,0,1.052-.323,2.828,2.828,0,0,0,.863-.863,5.544,5.544,0,0,0,.566-1.133A3.449,3.449,0,0,0-16.3,2.447V-10.335q0-1.024.459-1.321a1.53,1.53,0,0,1,.782-.3h8.2v5.771Z" transform="translate(18.992 11.953)"/></g><g transform="translate(229.176 0)"><path class="d" d="M0-6.182v-5.771H8.252a1.643,1.643,0,0,1,.755.3q.486.3.486,1.321V2.447a3.45,3.45,0,0,0,.216,1.187,5.471,5.471,0,0,0,.566,1.133,2.952,2.952,0,0,0,.836.863,1.9,1.9,0,0,0,1.079.323v5.07A3.227,3.227,0,0,0,10.3,12.236a3.694,3.694,0,0,0-.809,2.4V28.012a1.5,1.5,0,0,1-.459,1.294,1.445,1.445,0,0,1-.782.324H0V23.859H2.966v-11.6a4.168,4.168,0,0,1,.513-2.022,6.164,6.164,0,0,1,1.375-1.7,6.15,6.15,0,0,1-1.375-1.7A4.164,4.164,0,0,1,2.966,4.82v-11Z" transform="translate(0 11.953)"/></g><g transform="translate(206.934 12.747)"><path class="d" d="M-20.017-14.762-25.1-18.086l5.057-3.378a1.249,1.249,0,0,0,.344-1.727l-1.052-1.576a1.249,1.249,0,0,0-1.727-.343l-4.4,2.943V-27.3a1.249,1.249,0,0,0-1.246-1.245h-1.895A1.248,1.248,0,0,0-31.271-27.3v5.175l-4.468-2.922a1.25,1.25,0,0,0-1.724.361L-38.5-23.1a1.249,1.249,0,0,0,.361,1.724l5.084,3.324-5.057,3.378a1.249,1.249,0,0,0-.344,1.727l1.053,1.576a1.249,1.249,0,0,0,1.727.344l4.4-2.943V-8.5a1.249,1.249,0,0,0,1.245,1.246h1.895A1.249,1.249,0,0,0-26.885-8.5v-5.515l4.468,2.921a1.249,1.249,0,0,0,1.724-.361l1.037-1.586a1.249,1.249,0,0,0-.361-1.724" transform="translate(38.702 28.541)"/></g><g transform="translate(213.737 5.989)"><path class="d" d="M-6.2-3.1A2.894,2.894,0,0,1-9.094-.206,2.894,2.894,0,0,1-11.988-3.1,2.894,2.894,0,0,1-9.094-5.994,2.894,2.894,0,0,1-6.2-3.1" transform="translate(11.988 5.994)"/></g></g></g></svg>