<svg xmlns="http://www.w3.org/2000/svg" xmlns:xlink="http://www.w3.org/1999/xlink" width="398" height="72.146" viewBox="0 0 398 72.146"><defs><style>.a{fill:none;}.b{clip-path:url(#a);}.c{fill:#fff;}.d{fill:#43c0bc;}</style><clipPath id="a"><path class="a" d="M0-101.949H72.146v-398H0Z" transform="translate(0 499.949)"/></clipPath></defs><g transform="translate(-101.949) rotate(90)"><g class="b" transform="translate(0 -499.949)"><g transform="translate(56.089 288.219)"><path class="c" d="M-3.007-1.292A4.39,4.39,0,0,0-3.5-3.469,3.791,3.791,0,0,0-4.779-4.837a5.376,5.376,0,0,0-1.8-.705,10.119,10.119,0,0,0-2.04-.206h-6.127v-.585h6.127a10.4,10.4,0,0,1,2.341.258,5.624,5.624,0,0,1,1.97.852,4.341,4.341,0,0,1,1.36,1.549,5,5,0,0,1,.507,2.366,4.974,4.974,0,0,1-.533,2.418,4.376,4.376,0,0,1-1.4,1.557A5.773,5.773,0,0,1-6.354,3.5a10.286,10.286,0,0,1-2.263.249h-6.127v-.6h6.127a10.288,10.288,0,0,0,2.074-.207,5.066,5.066,0,0,0,1.79-.723A3.9,3.9,0,0,0-3.489.851a4.3,4.3,0,0,0,.482-2.142" transform="translate(14.744 6.334)"/></g><g transform="translate(59.221 278.237)"><path class="c" d="M-2.328,0V.585H-7.319a5.31,5.31,0,0,0-2.693.525,1.808,1.808,0,0,0-.852,1.661,3.441,3.441,0,0,0,.224,1.2,4.137,4.137,0,0,0,.62,1.111,4.569,4.569,0,0,0,.929.895,3.562,3.562,0,0,0,1.17.56h5.593v.585h-8.95V6.557h2.238a4.256,4.256,0,0,1-.973-.688,4.346,4.346,0,0,1-.748-.93,4.8,4.8,0,0,1-.482-1.092,4.134,4.134,0,0,1-.172-1.179A2.221,2.221,0,0,1-10.408.628,5.8,5.8,0,0,1-7.388,0Z" transform="translate(11.415)"/></g></g><path class="c" d="M73.638-153.963h8.95v-.585h-8.95Zm0-.585-3.613.585h1.446v-.585H70.025Z" transform="translate(-14.279 -70.434)"/><g class="b" transform="translate(0 -499.949)"><g transform="translate(59.221 265.038)"><path class="c" d="M-2.328,0V.585H-7.319a5.31,5.31,0,0,0-2.693.525,1.808,1.808,0,0,0-.852,1.661,3.441,3.441,0,0,0,.224,1.2,4.137,4.137,0,0,0,.62,1.111,4.569,4.569,0,0,0,.929.895,3.562,3.562,0,0,0,1.17.56h5.593v.585h-8.95V6.557h2.238a4.256,4.256,0,0,1-.973-.688,4.346,4.346,0,0,1-.748-.93,4.8,4.8,0,0,1-.482-1.092,4.134,4.134,0,0,1-.172-1.179A2.221,2.221,0,0,1-10.408.628,5.8,5.8,0,0,1-7.388,0Z" transform="translate(11.415)"/></g><g transform="translate(55.745 254.385)"><path class="c" d="M-3.262-1.1a3.8,3.8,0,0,1-.4,1.721A4.538,4.538,0,0,1-4.7,1.987a4.765,4.765,0,0,1-1.472.9,4.692,4.692,0,0,1-1.7.318,5.094,5.094,0,0,1-1.773-.31,4.727,4.727,0,0,1-1.48-.86A4.206,4.206,0,0,1-12.143.722,3.65,3.65,0,0,1-12.522-.93a3.684,3.684,0,0,1,.172-1.136,4.049,4.049,0,0,1,.474-.99,4.651,4.651,0,0,1,.7-.826,5.014,5.014,0,0,1,.826-.628H-16V-5.1H-4.364c.253,0,.379-.1.379-.31h.551a.463.463,0,0,1,.017.138.663.663,0,0,1-.232.517.77.77,0,0,1-.525.206H-5.259a4.113,4.113,0,0,1,.818.662,4.362,4.362,0,0,1,.628.835,4.308,4.308,0,0,1,.4.947,3.549,3.549,0,0,1,.146,1m-.551-.069a3.131,3.131,0,0,0-.206-1.067A4.318,4.318,0,0,0-4.579-3.3a3.51,3.51,0,0,0-.826-.826,2.053,2.053,0,0,0-.99-.388h-3.08a3.4,3.4,0,0,0-.973.56,4.143,4.143,0,0,0-.791.852,4.471,4.471,0,0,0-.534,1.025,3.088,3.088,0,0,0-.2,1.058,3.172,3.172,0,0,0,.353,1.5,3.585,3.585,0,0,0,.93,1.136,4.418,4.418,0,0,0,1.307.723A4.5,4.5,0,0,0-7.875,2.6a4.094,4.094,0,0,0,1.54-.293,4.242,4.242,0,0,0,1.29-.8,3.905,3.905,0,0,0,.895-1.2,3.327,3.327,0,0,0,.336-1.48" transform="translate(15.998 5.405)"/></g><g transform="translate(59.222 243.887)"><path class="c" d="M-2.372-1.106A3.912,3.912,0,0,1-2.742.588a4.443,4.443,0,0,1-1,1.368,4.547,4.547,0,0,1-1.471.912A4.859,4.859,0,0,1-6.984,3.2a4.8,4.8,0,0,1-1.79-.336,4.788,4.788,0,0,1-1.48-.92A4.4,4.4,0,0,1-11.261.572a3.877,3.877,0,0,1-.37-1.678,3.936,3.936,0,0,1,.37-1.687A4.369,4.369,0,0,1-10.255-4.17a4.79,4.79,0,0,1,1.48-.921,4.8,4.8,0,0,1,1.79-.335,4.752,4.752,0,0,1,1.773.335,4.746,4.746,0,0,1,1.471.912,4.324,4.324,0,0,1,1,1.368,3.971,3.971,0,0,1,.37,1.7M-6.967,2.61A4.223,4.223,0,0,0-5.4,2.318,4.207,4.207,0,0,0-4.11,1.527,3.678,3.678,0,0,0-3.241.348a3.345,3.345,0,0,0,.318-1.437A3.309,3.309,0,0,0-3.25-2.543a3.9,3.9,0,0,0-.877-1.188,4.1,4.1,0,0,0-1.3-.8A4.29,4.29,0,0,0-7-4.824a4.291,4.291,0,0,0-1.575.293,4.1,4.1,0,0,0-1.3.8,3.91,3.91,0,0,0-.878,1.188,3.282,3.282,0,0,0-.326,1.437A3.224,3.224,0,0,0-10.754.322,3.887,3.887,0,0,0-9.867,1.5a4.324,4.324,0,0,0,1.308.809,4.23,4.23,0,0,0,1.592.3" transform="translate(11.631 5.426)"/></g><g transform="translate(59.221 229.999)"><path class="c" d="M-1.173-2.028a4.9,4.9,0,0,1-1.8-.326,4.471,4.471,0,0,1-1.454-.912A4.238,4.238,0,0,1-5.4-4.652a4.249,4.249,0,0,1-.353-1.73,3.991,3.991,0,0,1,.543-2.083A3.375,3.375,0,0,1-3.72-9.824l.207.568A3.134,3.134,0,0,0-4.753-8.051,3.382,3.382,0,0,0-5.2-6.33a3.457,3.457,0,0,0,.31,1.454,3.716,3.716,0,0,0,.851,1.188A3.891,3.891,0,0,0-2.756-2.9a4.38,4.38,0,0,0,1.583.284,4.23,4.23,0,0,0,1.592-.3,4.444,4.444,0,0,0,1.316-.809A3.759,3.759,0,0,0,2.63-4.91a3.261,3.261,0,0,0,.328-1.437,3.46,3.46,0,0,0-.146-.99,4.134,4.134,0,0,0-.388-.9,3.147,3.147,0,0,0-.559-.714,1.653,1.653,0,0,0-.68-.4l.172-.585a2.466,2.466,0,0,1,.861.507,3.562,3.562,0,0,1,.68.826,4.355,4.355,0,0,1,.447,1.041A4.239,4.239,0,0,1,3.508-6.4a3.971,3.971,0,0,1-.37,1.7A4.45,4.45,0,0,1,2.131-3.309a4.779,4.779,0,0,1-1.488.938,4.807,4.807,0,0,1-1.816.344" transform="translate(5.751 9.944)"/></g><g transform="translate(55.745 220.069)"><path class="c" d="M-3.262-1.106A3.912,3.912,0,0,1-3.632.588a4.443,4.443,0,0,1-1,1.368A4.547,4.547,0,0,1-6.1,2.869,4.858,4.858,0,0,1-7.875,3.2a4.8,4.8,0,0,1-1.79-.335,4.788,4.788,0,0,1-1.48-.92A4.4,4.4,0,0,1-12.151.572a3.877,3.877,0,0,1-.37-1.678,3.936,3.936,0,0,1,.37-1.687A4.369,4.369,0,0,1-11.145-4.17a4.79,4.79,0,0,1,1.48-.921,4.8,4.8,0,0,1,1.79-.335A4.752,4.752,0,0,1-6.1-5.091a4.746,4.746,0,0,1,1.471.912,4.324,4.324,0,0,1,1,1.368,3.971,3.971,0,0,1,.37,1.7M-7.857,2.61a4.223,4.223,0,0,0,1.566-.292A4.207,4.207,0,0,0-5,1.527,3.678,3.678,0,0,0-4.132.348a3.345,3.345,0,0,0,.318-1.437A3.309,3.309,0,0,0-4.14-2.543a3.9,3.9,0,0,0-.877-1.188,4.1,4.1,0,0,0-1.3-.8,4.29,4.29,0,0,0-1.575-.293,4.291,4.291,0,0,0-1.575.293,4.1,4.1,0,0,0-1.3.8,3.91,3.91,0,0,0-.878,1.188,3.282,3.282,0,0,0-.326,1.437A3.227,3.227,0,0,0-11.644.322,3.887,3.887,0,0,0-10.757,1.5a4.324,4.324,0,0,0,1.308.809,4.23,4.23,0,0,0,1.592.3M-14.415-.969l-.224.413L-16-1.623V-2.4Z" transform="translate(15.998 5.426)"/></g><g transform="translate(55.745 209.949)"><path class="c" d="M-3.262-1.1a3.8,3.8,0,0,1-.4,1.721A4.538,4.538,0,0,1-4.7,1.987a4.765,4.765,0,0,1-1.472.9,4.692,4.692,0,0,1-1.7.318,5.094,5.094,0,0,1-1.773-.31,4.727,4.727,0,0,1-1.48-.86A4.206,4.206,0,0,1-12.143.722,3.65,3.65,0,0,1-12.522-.93a3.684,3.684,0,0,1,.172-1.136,4.049,4.049,0,0,1,.474-.99,4.651,4.651,0,0,1,.7-.826,5.014,5.014,0,0,1,.826-.628H-16V-5.1H-4.364c.253,0,.379-.1.379-.31h.551a.463.463,0,0,1,.017.138.663.663,0,0,1-.232.517.77.77,0,0,1-.525.206H-5.259a4.113,4.113,0,0,1,.818.662,4.362,4.362,0,0,1,.628.835,4.308,4.308,0,0,1,.4.947,3.549,3.549,0,0,1,.146,1m-.551-.069a3.131,3.131,0,0,0-.206-1.067A4.318,4.318,0,0,0-4.579-3.3a3.51,3.51,0,0,0-.826-.826,2.053,2.053,0,0,0-.99-.388h-3.08a3.4,3.4,0,0,0-.973.56,4.143,4.143,0,0,0-.791.852,4.471,4.471,0,0,0-.534,1.025,3.088,3.088,0,0,0-.2,1.058,3.172,3.172,0,0,0,.353,1.5,3.585,3.585,0,0,0,.93,1.136,4.418,4.418,0,0,0,1.307.723A4.5,4.5,0,0,0-7.875,2.6a4.094,4.094,0,0,0,1.54-.293,4.242,4.242,0,0,0,1.29-.8,3.905,3.905,0,0,0,.895-1.2,3.327,3.327,0,0,0,.336-1.48" transform="translate(15.998 5.405)"/></g></g><path class="c" d="M73.638-239.528h8.95v-.584h-8.95Zm0-.584-3.613.584h1.446v-.584H70.025Z" transform="translate(-14.279 -52.986)"/><g class="b" transform="translate(0 -499.949)"><g transform="translate(59.222 196.387)"><path class="c" d="M-2.367-1.027a3.8,3.8,0,0,1-.4,1.721A4.433,4.433,0,0,1-3.8,2.053a4.851,4.851,0,0,1-1.472.887,4.641,4.641,0,0,1-1.686.318,5.109,5.109,0,0,1-1.747-.3A4.725,4.725,0,0,1-10.19,2.1,4.2,4.2,0,0,1-11.222.788a3.7,3.7,0,0,1-.387-1.695,3.468,3.468,0,0,1,.172-1.1,4.156,4.156,0,0,1,.465-.963,4.705,4.705,0,0,1,.688-.826,6.9,6.9,0,0,1,.844-.689h-2.031v-.551h9.224A3.447,3.447,0,0,1-.672-4.7a3.332,3.332,0,0,1,1.111.895,3.723,3.723,0,0,1,.662,1.3A5.53,5.53,0,0,1,1.315-.959a5.72,5.72,0,0,1-.154,1.4A4.044,4.044,0,0,1,.73,1.519a3.546,3.546,0,0,1-.662.818,4.485,4.485,0,0,1-.852.611l-.241-.43A3.268,3.268,0,0,0,.369,1.038a4.7,4.7,0,0,0,.431-2A4.676,4.676,0,0,0,.61-2.31,3.253,3.253,0,0,0,.034-3.42a2.756,2.756,0,0,0-.955-.758,3.014,3.014,0,0,0-1.325-.275h-2.1a3.914,3.914,0,0,1,.809.663,4.551,4.551,0,0,1,.619.834,4.335,4.335,0,0,1,.4.938,3.438,3.438,0,0,1,.146.99M-2.9-1.113a3.121,3.121,0,0,0-.232-1.179,4.15,4.15,0,0,0-.6-1.042A3.57,3.57,0,0,0-4.561-4.1a2.1,2.1,0,0,0-.921-.353h-3.08a3.8,3.8,0,0,0-1,.577,4.021,4.021,0,0,0-.792.834,4.142,4.142,0,0,0-.517,1,3.232,3.232,0,0,0-.189,1.084A3.175,3.175,0,0,0-10.7.573,3.626,3.626,0,0,0-9.75,1.709a4.208,4.208,0,0,0,1.317.705,4.645,4.645,0,0,0,1.471.241,4.1,4.1,0,0,0,1.54-.293,4.221,4.221,0,0,0,1.29-.8,3.914,3.914,0,0,0,.895-1.2A3.331,3.331,0,0,0-2.9-1.113" transform="translate(11.609 5.038)"/></g><g transform="translate(59.222 185.614)"><path class="c" d="M-2.372-1.106A3.917,3.917,0,0,1-2.742.588a4.452,4.452,0,0,1-1,1.368,4.532,4.532,0,0,1-1.471.912A4.859,4.859,0,0,1-6.984,3.2a4.8,4.8,0,0,1-1.79-.335,4.8,4.8,0,0,1-1.48-.92A4.409,4.409,0,0,1-11.261.572a3.879,3.879,0,0,1-.37-1.678,3.936,3.936,0,0,1,.37-1.687A4.369,4.369,0,0,1-10.255-4.17a4.775,4.775,0,0,1,1.48-.921,4.8,4.8,0,0,1,1.79-.335,4.752,4.752,0,0,1,1.773.335,4.746,4.746,0,0,1,1.471.912,4.329,4.329,0,0,1,1,1.368,3.975,3.975,0,0,1,.37,1.7M-6.967,2.61A4.223,4.223,0,0,0-5.4,2.318,4.223,4.223,0,0,0-4.11,1.527,3.682,3.682,0,0,0-3.241.347,3.34,3.34,0,0,0-2.923-1.09,3.314,3.314,0,0,0-3.25-2.544a3.9,3.9,0,0,0-.877-1.187,4.1,4.1,0,0,0-1.3-.8A4.29,4.29,0,0,0-7-4.824a4.291,4.291,0,0,0-1.575.293,4.1,4.1,0,0,0-1.3.8,3.916,3.916,0,0,0-.878,1.187,3.285,3.285,0,0,0-.326,1.438A3.224,3.224,0,0,0-10.754.322,3.887,3.887,0,0,0-9.867,1.5a4.324,4.324,0,0,0,1.308.809,4.23,4.23,0,0,0,1.592.3" transform="translate(11.631 5.426)"/></g><g transform="translate(59.222 177.371)"><path class="c" d="M-2.372-.864a5.308,5.308,0,0,1-.345,1.927A4.292,4.292,0,0,1-3.783,2.647l-.4-.327A5.427,5.427,0,0,0-3.2.84,4.209,4.209,0,0,0-2.871-.847a3.506,3.506,0,0,0-.534-2.031,1.714,1.714,0,0,0-1.5-.774,1.336,1.336,0,0,0-.749.2,1.657,1.657,0,0,0-.516.576,4.475,4.475,0,0,0-.379.938q-.164.56-.335,1.282-.172.74-.336,1.282a3.848,3.848,0,0,1-.387.9,1.4,1.4,0,0,1-.568.533,1.958,1.958,0,0,1-.877.172A2.415,2.415,0,0,1-10.2,1.976a2.352,2.352,0,0,1-.8-.7A3.056,3.056,0,0,1-11.476.263a4.717,4.717,0,0,1-.155-1.231,4.436,4.436,0,0,1,.361-1.868,2.642,2.642,0,0,1,.912-1.144l.292.4a2.366,2.366,0,0,0-.791,1.11,4.4,4.4,0,0,0-.275,1.558,4.285,4.285,0,0,0,.111,1A2.354,2.354,0,0,0-10.658.9a1.828,1.828,0,0,0,.628.56,1.841,1.841,0,0,0,.895.207,1.537,1.537,0,0,0,.689-.138,1.117,1.117,0,0,0,.455-.439,3.13,3.13,0,0,0,.31-.758C-7.6.028-7.5-.342-7.4-.779q.19-.825.379-1.462a5.046,5.046,0,0,1,.447-1.085,1.873,1.873,0,0,1,.637-.68,1.821,1.821,0,0,1,.963-.232A2.338,2.338,0,0,1-3.895-4a2.453,2.453,0,0,1,.818.68A3.116,3.116,0,0,1-2.552-2.25,5.015,5.015,0,0,1-2.372-.864" transform="translate(11.631 4.237)"/></g><g transform="translate(59.222 162.811)"><path class="c" d="M-2.372-1.1a3.969,3.969,0,0,1-.37,1.7A4.408,4.408,0,0,1-3.757,1.992a4.782,4.782,0,0,1-1.5.929,4.929,4.929,0,0,1-1.816.336,4.758,4.758,0,0,1-1.773-.328,4.47,4.47,0,0,1-1.446-.912A4.428,4.428,0,0,1-11.27.658a3.946,3.946,0,0,1-.361-1.687,4.1,4.1,0,0,1,.361-1.72,4.312,4.312,0,0,1,.99-1.377,4.65,4.65,0,0,1,1.471-.92,4.8,4.8,0,0,1,1.79-.336h.138c.068,0,.109.006.12.018v8.02a4.715,4.715,0,0,0,1.54-.387,4.155,4.155,0,0,0,1.231-.826A3.87,3.87,0,0,0-3.173.271a3.342,3.342,0,0,0,.3-1.4A3.614,3.614,0,0,0-3-2.087a3.7,3.7,0,0,0-.37-.887A3.114,3.114,0,0,0-3.946-3.7a2.959,2.959,0,0,0-.732-.5l.138-.534a3.044,3.044,0,0,1,.869.551,3.457,3.457,0,0,1,.688.853,4.686,4.686,0,0,1,.447,1.058A4.206,4.206,0,0,1-2.372-1.1M-7.26-4.8a4.514,4.514,0,0,0-1.549.361,4.037,4.037,0,0,0-1.221.818,3.661,3.661,0,0,0-.8,1.161,3.5,3.5,0,0,0-.283,1.411A3.418,3.418,0,0,0-10.822.366a3.6,3.6,0,0,0,.809,1.144A4.052,4.052,0,0,0-8.791,2.3a4.583,4.583,0,0,0,1.532.353Z" transform="translate(11.631 5.383)"/></g><g transform="translate(59.222 148.097)"><path class="c" d="M-2.372-1.058A3.544,3.544,0,0,1-2.544.053a4.266,4.266,0,0,1-.465.981,4.565,4.565,0,0,1-.689.835,4.992,4.992,0,0,1-.843.654H1.121v.585H-11.493V2.556h1.859a4.351,4.351,0,0,1-.8-.662,4.529,4.529,0,0,1-.636-.844A4.244,4.244,0,0,1-11.485.1,3.5,3.5,0,0,1-11.631-.9a3.8,3.8,0,0,1,.4-1.721,4.387,4.387,0,0,1,1.05-1.36A4.931,4.931,0,0,1-8.7-4.87,4.717,4.717,0,0,1-7-5.188a5.213,5.213,0,0,1,1.772.3,4.589,4.589,0,0,1,1.472.843,4.152,4.152,0,0,1,1.006,1.3,3.723,3.723,0,0,1,.379,1.687m-.551.086a3.171,3.171,0,0,0-.353-1.5A3.671,3.671,0,0,0-4.2-3.613a4.3,4.3,0,0,0-1.309-.732A4.441,4.441,0,0,0-7-4.6a4.119,4.119,0,0,0-1.532.293A4.262,4.262,0,0,0-9.841-3.5a3.94,3.94,0,0,0-.9,1.2,3.323,3.323,0,0,0-.336,1.48A2.955,2.955,0,0,0-10.865.242,4.619,4.619,0,0,0-10.3,1.291a3.738,3.738,0,0,0,.818.835,1.947,1.947,0,0,0,.981.4h3.08a4.154,4.154,0,0,0,.973-.594,4.588,4.588,0,0,0,.791-.817A3.854,3.854,0,0,0-3.121.13a3.136,3.136,0,0,0,.2-1.1" transform="translate(11.631 5.188)"/></g><g transform="translate(59.222 137.943)"><path class="c" d="M-2.372-1.1a3.969,3.969,0,0,1-.37,1.7A4.408,4.408,0,0,1-3.757,1.992a4.782,4.782,0,0,1-1.5.929,4.929,4.929,0,0,1-1.816.336,4.758,4.758,0,0,1-1.773-.328,4.483,4.483,0,0,1-1.446-.912A4.438,4.438,0,0,1-11.27.658a3.948,3.948,0,0,1-.361-1.687,4.1,4.1,0,0,1,.361-1.72,4.312,4.312,0,0,1,.99-1.377,4.666,4.666,0,0,1,1.471-.921,4.816,4.816,0,0,1,1.79-.335h.138c.068,0,.109.006.12.018v8.02a4.7,4.7,0,0,0,1.54-.388,4.138,4.138,0,0,0,1.231-.826A3.87,3.87,0,0,0-3.173.271a3.342,3.342,0,0,0,.3-1.4A3.614,3.614,0,0,0-3-2.087a3.7,3.7,0,0,0-.37-.887A3.1,3.1,0,0,0-3.946-3.7a2.984,2.984,0,0,0-.732-.5l.138-.533a3.027,3.027,0,0,1,.869.551,3.457,3.457,0,0,1,.688.853,4.686,4.686,0,0,1,.447,1.058A4.2,4.2,0,0,1-2.372-1.1M-7.26-4.8a4.514,4.514,0,0,0-1.549.361,4.037,4.037,0,0,0-1.221.818,3.661,3.661,0,0,0-.8,1.161,3.5,3.5,0,0,0-.283,1.411A3.418,3.418,0,0,0-10.822.366a3.6,3.6,0,0,0,.809,1.144A4.052,4.052,0,0,0-8.791,2.3a4.6,4.6,0,0,0,1.532.353Z" transform="translate(11.631 5.383)"/></g><g transform="translate(59.222 129.889)"><path class="c" d="M-2.372-.864a5.315,5.315,0,0,1-.345,1.928A4.3,4.3,0,0,1-3.783,2.647l-.4-.327A5.427,5.427,0,0,0-3.2.84,4.209,4.209,0,0,0-2.871-.847a3.5,3.5,0,0,0-.534-2.03,1.713,1.713,0,0,0-1.5-.775,1.33,1.33,0,0,0-.749.2,1.643,1.643,0,0,0-.516.576,4.485,4.485,0,0,0-.379.937q-.164.561-.335,1.282-.172.74-.336,1.282a3.834,3.834,0,0,1-.387.9,1.391,1.391,0,0,1-.568.533,1.948,1.948,0,0,1-.877.172A2.415,2.415,0,0,1-10.2,1.976a2.349,2.349,0,0,1-.8-.7A3.067,3.067,0,0,1-11.476.263a4.717,4.717,0,0,1-.155-1.231,4.438,4.438,0,0,1,.361-1.868,2.647,2.647,0,0,1,.912-1.144l.292.4a2.366,2.366,0,0,0-.791,1.11,4.4,4.4,0,0,0-.275,1.558,4.285,4.285,0,0,0,.111,1A2.354,2.354,0,0,0-10.658.9a1.828,1.828,0,0,0,.628.56,1.832,1.832,0,0,0,.895.207,1.537,1.537,0,0,0,.689-.138,1.112,1.112,0,0,0,.455-.439,3.123,3.123,0,0,0,.31-.757C-7.6.028-7.5-.342-7.4-.778q.19-.826.379-1.462a5.046,5.046,0,0,1,.447-1.085,1.88,1.88,0,0,1,.637-.68,1.821,1.821,0,0,1,.963-.232A2.348,2.348,0,0,1-3.895-4a2.463,2.463,0,0,1,.818.68,3.113,3.113,0,0,1,.525,1.068A5.009,5.009,0,0,1-2.372-.864" transform="translate(11.631 4.237)"/></g><g transform="translate(59.222 121.697)"><path class="c" d="M-2.372-.864a5.315,5.315,0,0,1-.345,1.928A4.3,4.3,0,0,1-3.783,2.648l-.4-.328A5.427,5.427,0,0,0-3.2.84,4.209,4.209,0,0,0-2.871-.847a3.5,3.5,0,0,0-.534-2.03,1.713,1.713,0,0,0-1.5-.775,1.33,1.33,0,0,0-.749.2,1.643,1.643,0,0,0-.516.576,4.485,4.485,0,0,0-.379.937c-.109.374-.221.8-.335,1.283s-.227.92-.336,1.282a3.834,3.834,0,0,1-.387.9,1.391,1.391,0,0,1-.568.533,1.947,1.947,0,0,1-.877.173A2.415,2.415,0,0,1-10.2,1.976a2.349,2.349,0,0,1-.8-.7A3.067,3.067,0,0,1-11.476.263a4.717,4.717,0,0,1-.155-1.231,4.438,4.438,0,0,1,.361-1.868,2.647,2.647,0,0,1,.912-1.144l.292.4a2.366,2.366,0,0,0-.791,1.11,4.4,4.4,0,0,0-.275,1.558,4.285,4.285,0,0,0,.111,1A2.364,2.364,0,0,0-10.658.9a1.834,1.834,0,0,0,.628.559,1.832,1.832,0,0,0,.895.207,1.537,1.537,0,0,0,.689-.138,1.112,1.112,0,0,0,.455-.439,3.123,3.123,0,0,0,.31-.757C-7.6.028-7.5-.342-7.4-.778q.19-.826.379-1.462a5.046,5.046,0,0,1,.447-1.085,1.88,1.88,0,0,1,.637-.68,1.821,1.821,0,0,1,.963-.232A2.348,2.348,0,0,1-3.895-4a2.463,2.463,0,0,1,.818.68,3.113,3.113,0,0,1,.525,1.068A5,5,0,0,1-2.372-.864" transform="translate(11.631 4.237)"/></g><g transform="translate(59.222 111.612)"><path class="c" d="M-2.372-1.106A3.915,3.915,0,0,1-2.742.588a4.452,4.452,0,0,1-1,1.368,4.518,4.518,0,0,1-1.471.912A4.843,4.843,0,0,1-6.984,3.2a4.82,4.82,0,0,1-1.79-.336,4.8,4.8,0,0,1-1.48-.92A4.4,4.4,0,0,1-11.261.572a3.879,3.879,0,0,1-.37-1.678,3.936,3.936,0,0,1,.37-1.687A4.369,4.369,0,0,1-10.255-4.17a4.805,4.805,0,0,1,1.48-.921,4.8,4.8,0,0,1,1.79-.335,4.752,4.752,0,0,1,1.773.335,4.761,4.761,0,0,1,1.471.912,4.324,4.324,0,0,1,1,1.368,3.974,3.974,0,0,1,.37,1.7M-6.967,2.611A4.223,4.223,0,0,0-5.4,2.318,4.223,4.223,0,0,0-4.11,1.527,3.678,3.678,0,0,0-3.241.348,3.346,3.346,0,0,0-2.923-1.09,3.311,3.311,0,0,0-3.25-2.543a3.9,3.9,0,0,0-.877-1.188,4.1,4.1,0,0,0-1.3-.8A4.29,4.29,0,0,0-7-4.824a4.291,4.291,0,0,0-1.575.293,4.1,4.1,0,0,0-1.3.8,3.92,3.92,0,0,0-.878,1.188,3.282,3.282,0,0,0-.326,1.437A3.224,3.224,0,0,0-10.754.322,3.878,3.878,0,0,0-9.867,1.5a4.324,4.324,0,0,0,1.308.809,4.215,4.215,0,0,0,1.592.3" transform="translate(11.631 5.426)"/></g><g transform="translate(59.222 102.714)"><path class="c" d="M-2.372-1.173A3.037,3.037,0,0,1-2.588-.02a2.943,2.943,0,0,1-.585.93,2.668,2.668,0,0,1-.869.62,2.624,2.624,0,0,1-1.084.223,2.038,2.038,0,0,1-1.041-.275A2.6,2.6,0,0,1-6.984.712,3.775,3.775,0,0,1-7.518-.458a5.558,5.558,0,0,1-.189-1.489A9.785,9.785,0,0,1-7.586-3.47a6.637,6.637,0,0,1,.361-1.385h-.963a2.973,2.973,0,0,0-2.143.766,2.715,2.715,0,0,0-.8,2.056,3.889,3.889,0,0,0,.284,1.394A6.566,6.566,0,0,0-10.03.841l-.431.275a5.78,5.78,0,0,1-1.17-3.184,3.289,3.289,0,0,1,.929-2.47,3.5,3.5,0,0,1,2.547-.9h4.681c.253,0,.379-.1.379-.31h.551a.317.317,0,0,1,.017.095v.078a.638.638,0,0,1-.215.49.746.746,0,0,1-.525.2h-.792A4.072,4.072,0,0,1-2.81-3.29a5.132,5.132,0,0,1,.439,2.117m-.5-.068a4.959,4.959,0,0,0-.172-1.282,4.66,4.66,0,0,0-.474-1.162,3.107,3.107,0,0,0-.7-.843,1.3,1.3,0,0,0-.844-.327H-6.743A7.88,7.88,0,0,0-7.26-2,5.026,5.026,0,0,0-7.1-.708,3.444,3.444,0,0,0-6.675.3a2.051,2.051,0,0,0,.662.654,1.657,1.657,0,0,0,.869.232A2.124,2.124,0,0,0-4.248,1,2.315,2.315,0,0,0-3.525.48a2.339,2.339,0,0,0,.482-.767,2.592,2.592,0,0,0,.172-.955" transform="translate(11.631 5.751)"/></g><g transform="translate(59.222 94.247)"><path class="c" d="M-2.372-.864a5.315,5.315,0,0,1-.345,1.928A4.3,4.3,0,0,1-3.783,2.647l-.4-.327A5.427,5.427,0,0,0-3.2.84,4.209,4.209,0,0,0-2.871-.847a3.5,3.5,0,0,0-.534-2.03,1.713,1.713,0,0,0-1.5-.775,1.33,1.33,0,0,0-.749.2,1.643,1.643,0,0,0-.516.576,4.485,4.485,0,0,0-.379.937c-.109.374-.221.8-.335,1.283s-.227.92-.336,1.282a3.834,3.834,0,0,1-.387.9,1.391,1.391,0,0,1-.568.533,1.947,1.947,0,0,1-.877.173A2.415,2.415,0,0,1-10.2,1.976a2.349,2.349,0,0,1-.8-.7A3.067,3.067,0,0,1-11.476.263a4.717,4.717,0,0,1-.155-1.231,4.438,4.438,0,0,1,.361-1.868,2.647,2.647,0,0,1,.912-1.144l.292.4a2.366,2.366,0,0,0-.791,1.11,4.4,4.4,0,0,0-.275,1.558,4.285,4.285,0,0,0,.111,1A2.354,2.354,0,0,0-10.658.9a1.828,1.828,0,0,0,.628.56,1.832,1.832,0,0,0,.895.207,1.537,1.537,0,0,0,.689-.138,1.112,1.112,0,0,0,.455-.439,3.123,3.123,0,0,0,.31-.757C-7.6.028-7.5-.342-7.4-.778q.19-.826.379-1.462a5.046,5.046,0,0,1,.447-1.085,1.88,1.88,0,0,1,.637-.68,1.821,1.821,0,0,1,.963-.232A2.348,2.348,0,0,1-3.895-4a2.463,2.463,0,0,1,.818.68,3.113,3.113,0,0,1,.525,1.068A5,5,0,0,1-2.372-.864" transform="translate(11.631 4.237)"/></g><g transform="translate(27.845 377.126)"><path class="c" d="M-5.858-2.587a8.837,8.837,0,0,1-1.506,5.07,12.29,12.29,0,0,1-3.67,3.585H2.755V8.19h-31.1V6.238h4.413a10.764,10.764,0,0,1-3.458-3.585,9.12,9.12,0,0,1-1.336-4.773,9.355,9.355,0,0,1,.975-4.243,10.922,10.922,0,0,1,2.567-3.352,11.816,11.816,0,0,1,3.67-2.185,11.925,11.925,0,0,1,4.242-.785,13.231,13.231,0,0,1,4.37.721A11.265,11.265,0,0,1-9.251-9.9,9.815,9.815,0,0,1-6.77-6.7a9.246,9.246,0,0,1,.912,4.115m-1.909.509a7.5,7.5,0,0,0-.806-3.48,8.4,8.4,0,0,0-2.142-2.672,9.781,9.781,0,0,0-3.055-1.7,10.654,10.654,0,0,0-3.5-.594,9.791,9.791,0,0,0-3.628.679,9.7,9.7,0,0,0-3.033,1.888,9.379,9.379,0,0,0-2.1,2.821A7.74,7.74,0,0,0-26.816-1.7a6.919,6.919,0,0,0,.488,2.44,10.442,10.442,0,0,0,1.315,2.439,9.193,9.193,0,0,0,1.888,1.952,4.468,4.468,0,0,0,2.249.933h7.255a10.5,10.5,0,0,0,2.291-1.4A10.773,10.773,0,0,0-9.464,2.759,8.592,8.592,0,0,0-8.212.468a7.42,7.42,0,0,0,.446-2.545" transform="translate(28.725 12.684)"/></g><g transform="translate(28.142 361.598)"><path class="c" d="M-.511,0a8.852,8.852,0,0,0,1.76,5.2,8.775,8.775,0,0,0,4.6,3.117H19.642v2.122H-2.421V8.4H3.01a10.653,10.653,0,0,1-3.8-3.034A7.766,7.766,0,0,1-2.463,1.315Q-2.5.892-2.505.552V0Z" transform="translate(2.505)"/></g><g transform="translate(27.845 338.645)"><path class="c" d="M-5.858-2.76A10.13,10.13,0,0,1-6.77,1.546,10.658,10.658,0,0,1-9.251,4.962,11.442,11.442,0,0,1-12.9,7.21a11.993,11.993,0,0,1-4.37.806,11.825,11.825,0,0,1-4.413-.827,11.778,11.778,0,0,1-3.648-2.27A10.684,10.684,0,0,1-27.813,1.5a10.044,10.044,0,0,1-.912-4.264A9.9,9.9,0,0,1-27.813-7a11.005,11.005,0,0,1,2.482-3.415,11.558,11.558,0,0,1,3.648-2.291,11.825,11.825,0,0,1,4.413-.828,11.7,11.7,0,0,1,4.37.828,11.74,11.74,0,0,1,3.649,2.27A10.663,10.663,0,0,1-6.77-7.024,10.032,10.032,0,0,1-5.858-2.76M-17.185,5.895a9.893,9.893,0,0,0,3.67-.679A9.58,9.58,0,0,0-10.524,3.37,8.727,8.727,0,0,0-8.509.634a7.738,7.738,0,0,0,.743-3.352A7.739,7.739,0,0,0-8.509-6.07a8.7,8.7,0,0,0-2.057-2.758A9.945,9.945,0,0,0-13.6-10.694a10.019,10.019,0,0,0-3.712-.679,9.906,9.906,0,0,0-3.67.679,9.672,9.672,0,0,0-3.012,1.867A9.22,9.22,0,0,0-26.053-6.09a7.432,7.432,0,0,0-.763,3.33A7.569,7.569,0,0,0-26.053.592a8.744,8.744,0,0,0,2.079,2.736A10.357,10.357,0,0,0-20.9,5.195a9.965,9.965,0,0,0,3.713.7" transform="translate(28.725 13.537)"/></g><g transform="translate(18.893 319.553)"><path class="c" d="M-2.837-3.423v3.1H-4.576v-3.1H-5.3a11.3,11.3,0,0,1-2.992-.424,8.544,8.544,0,0,1-2.778-1.315A7.174,7.174,0,0,1-13.1-7.475a6.814,6.814,0,0,1-.806-3.415,10.267,10.267,0,0,1,.213-2.142,13.659,13.659,0,0,1,.487-1.761,6.814,6.814,0,0,1,.594-1.273,8.6,8.6,0,0,1,.489-.721l1.485,1.061a4.953,4.953,0,0,0-.955,1.866,9.536,9.536,0,0,0-.4,2.885,4.786,4.786,0,0,0,.615,2.482,5.311,5.311,0,0,0,1.57,1.7,6.523,6.523,0,0,0,2.143.955,9.577,9.577,0,0,0,2.333.3h.764V-16.364H17.486v2.122H-2.837v8.7H17.486v2.122Z" transform="translate(13.91 16.788)"/></g><g transform="translate(27.845 297.873)"><path class="c" d="M-5.858-2.174a14.176,14.176,0,0,1-.849,4.879A11.27,11.27,0,0,1-9.251,6.778l-1.442-1.06A12.4,12.4,0,0,0-8.318,2.027a11.2,11.2,0,0,0,.763-4.2A8.054,8.054,0,0,0-8.764-6.819,3.862,3.862,0,0,0-12.136-8.58a3.14,3.14,0,0,0-1.719.445A3.569,3.569,0,0,0-15.043-6.8a11.089,11.089,0,0,0-.87,2.206q-.381,1.316-.806,3.055-.424,1.868-.849,3.246a8.706,8.706,0,0,1-1.018,2.27,3.93,3.93,0,0,1-1.442,1.337,4.648,4.648,0,0,1-2.164.445,6.2,6.2,0,0,1-2.885-.636,5.684,5.684,0,0,1-2.036-1.761A8.08,8.08,0,0,1-28.322.775a11.684,11.684,0,0,1-.4-3.118,11.375,11.375,0,0,1,.869-4.582,8.026,8.026,0,0,1,2.227-3.1l1.146,1.188a6.732,6.732,0,0,0-1.909,2.864,10.964,10.964,0,0,0-.637,3.755A10.075,10.075,0,0,0-26.774.1a5.563,5.563,0,0,0,.806,1.888,3.975,3.975,0,0,0,1.421,1.273,4.294,4.294,0,0,0,2.058.467,3.321,3.321,0,0,0,1.57-.318A2.694,2.694,0,0,0-19.9,2.387a7.51,7.51,0,0,0,.742-1.8q.319-1.1.7-2.63.509-2.078.975-3.691a10.717,10.717,0,0,1,1.146-2.694,5.027,5.027,0,0,1,1.613-1.654,4.475,4.475,0,0,1,2.376-.573A5.642,5.642,0,0,1-7.618-8.346a9.941,9.941,0,0,1,1.76,6.173" transform="translate(28.725 10.659)"/></g><g transform="translate(27.845 277.466)"><path class="c" d="M-5.858-2.174a14.176,14.176,0,0,1-.849,4.879A11.27,11.27,0,0,1-9.251,6.778l-1.442-1.06A12.4,12.4,0,0,0-8.318,2.027a11.2,11.2,0,0,0,.763-4.2A8.054,8.054,0,0,0-8.764-6.819,3.862,3.862,0,0,0-12.136-8.58a3.14,3.14,0,0,0-1.719.445A3.569,3.569,0,0,0-15.043-6.8a11.089,11.089,0,0,0-.87,2.206q-.381,1.316-.806,3.055-.424,1.868-.849,3.246a8.706,8.706,0,0,1-1.018,2.27,3.93,3.93,0,0,1-1.442,1.337,4.648,4.648,0,0,1-2.164.445,6.2,6.2,0,0,1-2.885-.636,5.684,5.684,0,0,1-2.036-1.761A8.08,8.08,0,0,1-28.322.775a11.684,11.684,0,0,1-.4-3.118,11.375,11.375,0,0,1,.869-4.582,8.026,8.026,0,0,1,2.227-3.1l1.146,1.188a6.732,6.732,0,0,0-1.909,2.864,10.964,10.964,0,0,0-.637,3.755A10.075,10.075,0,0,0-26.774.1a5.563,5.563,0,0,0,.806,1.888,3.975,3.975,0,0,0,1.421,1.273,4.294,4.294,0,0,0,2.058.467,3.321,3.321,0,0,0,1.57-.318A2.694,2.694,0,0,0-19.9,2.387a7.51,7.51,0,0,0,.742-1.8q.319-1.1.7-2.63.509-2.078.975-3.691a10.717,10.717,0,0,1,1.146-2.694,5.027,5.027,0,0,1,1.613-1.654,4.475,4.475,0,0,1,2.376-.573A5.642,5.642,0,0,1-7.618-8.346a9.941,9.941,0,0,1,1.76,6.173" transform="translate(28.725 10.659)"/></g></g><path class="c" d="M28.168-158.133h-3.9v-2.122h3.9Zm27.068,0H33.175v-2.122H55.237Z" transform="translate(-4.948 -69.27)"/><g class="b" transform="translate(0 -499.949)"><g transform="translate(27.845 243.738)"><path class="c" d="M-5.858-2.76A10.13,10.13,0,0,1-6.77,1.546,10.658,10.658,0,0,1-9.251,4.962,11.442,11.442,0,0,1-12.9,7.21a11.993,11.993,0,0,1-4.37.806,11.825,11.825,0,0,1-4.413-.827,11.778,11.778,0,0,1-3.648-2.27A10.684,10.684,0,0,1-27.813,1.5a10.044,10.044,0,0,1-.912-4.264A9.9,9.9,0,0,1-27.813-7a11.005,11.005,0,0,1,2.482-3.415,11.558,11.558,0,0,1,3.648-2.291,11.825,11.825,0,0,1,4.413-.828,11.7,11.7,0,0,1,4.37.828,11.74,11.74,0,0,1,3.649,2.27A10.663,10.663,0,0,1-6.77-7.024,10.032,10.032,0,0,1-5.858-2.76M-17.185,5.895a9.893,9.893,0,0,0,3.67-.679A9.58,9.58,0,0,0-10.524,3.37,8.727,8.727,0,0,0-8.509.634a7.74,7.74,0,0,0,.743-3.352A7.739,7.739,0,0,0-8.509-6.07a8.7,8.7,0,0,0-2.057-2.758A9.945,9.945,0,0,0-13.6-10.694a10.019,10.019,0,0,0-3.712-.679,9.906,9.906,0,0,0-3.67.679,9.672,9.672,0,0,0-3.012,1.867A9.22,9.22,0,0,0-26.053-6.09a7.432,7.432,0,0,0-.763,3.33A7.569,7.569,0,0,0-26.053.592a8.744,8.744,0,0,0,2.079,2.736A10.357,10.357,0,0,0-20.9,5.195a9.965,9.965,0,0,0,3.713.7" transform="translate(28.725 13.537)"/></g><g transform="translate(27.845 220.616)"><path class="c" d="M-5.749,0V2.122h-12.3q-4.286,0-6.237,1.209A4.183,4.183,0,0,0-26.241,7.17a7.977,7.977,0,0,0,.509,2.779,9.445,9.445,0,0,0,1.442,2.567A10.544,10.544,0,0,0-22.1,14.595a8.979,8.979,0,0,0,2.694,1.315H-5.749v2.122H-27.811V16.037h5.261a10.374,10.374,0,0,1-2.312-1.676,10.576,10.576,0,0,1-1.782-2.248A11.357,11.357,0,0,1-27.79,9.461a10.388,10.388,0,0,1-.4-2.885q0-3.606,2.524-5.092A14.424,14.424,0,0,1-18.435,0Z" transform="translate(28.193)"/></g><g transform="translate(27.845 196.942)"><path class="c" d="M-5.858-3.032a7.532,7.532,0,0,1-.53,2.843A7.567,7.567,0,0,1-7.83,2.123,6.371,6.371,0,0,1-9.994,3.672a6.6,6.6,0,0,1-2.694.551,5.216,5.216,0,0,1-2.631-.678,6.512,6.512,0,0,1-2.057-1.888A9.372,9.372,0,0,1-18.734-1.25a13.5,13.5,0,0,1-.487-3.734A20.638,20.638,0,0,1-18.9-8.569a17.744,17.744,0,0,1,.87-3.246H-20.2a6.871,6.871,0,0,0-4.985,1.782A6.407,6.407,0,0,0-27.029-5.2a9.705,9.705,0,0,0,.679,3.415A17.494,17.494,0,0,0-24.4,1.889L-25.84,2.7a14.477,14.477,0,0,1-2.885-8.061,8.444,8.444,0,0,1,2.312-6.279,8.678,8.678,0,0,1,6.385-2.291H-9.251q1.06,0,1.06-.933h1.909a4.384,4.384,0,0,1,.064.446c.014.155.021.29.021.4a1.725,1.725,0,0,1-.573,1.358,2.4,2.4,0,0,1-1.379.594H-9.973a9.921,9.921,0,0,1,3.055,3.9,12.457,12.457,0,0,1,1.06,5.134m-1.7-.424a10.81,10.81,0,0,0-.933-4.519,7.716,7.716,0,0,0-2.461-3.16,2.846,2.846,0,0,0-1.7-.679h-3.9a17.119,17.119,0,0,0-.891,3.182,19.481,19.481,0,0,0-.3,3.437,11.732,11.732,0,0,0,.361,3.012,8,8,0,0,0,1,2.333,4.621,4.621,0,0,0,1.548,1.506,3.935,3.935,0,0,0,2.016.53,5.142,5.142,0,0,0,2.079-.424A4.894,4.894,0,0,0-9.06.574a5.657,5.657,0,0,0,1.1-1.8,6.1,6.1,0,0,0,.4-2.227" transform="translate(28.725 14.869)"/></g><g transform="translate(19.317 183.705)"><path class="c" d="M0-1.935V-4.1H26.6a2.684,2.684,0,0,0,1.951-.7,2.564,2.564,0,0,0,.721-1.931,7.206,7.206,0,0,0-.106-1.124,5.92,5.92,0,0,0-.318-1.208l1.7-.425A8.872,8.872,0,0,1,31.035-7.7a10.514,10.514,0,0,1,.191,1.824,3.868,3.868,0,0,1-1.082,2.864,3.925,3.925,0,0,1-2.906,1.083Z" transform="translate(0 9.487)"/></g><g transform="translate(19.317 160.202)"><path class="c" d="M-8.042-2.858A9.513,9.513,0,0,1-9,1.384a10.867,10.867,0,0,1-2.546,3.374,11.648,11.648,0,0,1-3.648,2.206,11.851,11.851,0,0,1-4.264.785,12.561,12.561,0,0,1-4.37-.764,11.665,11.665,0,0,1-3.649-2.121,10.422,10.422,0,0,1-2.5-3.2,8.856,8.856,0,0,1-.933-4.052,8.557,8.557,0,0,1,.424-2.715,10.771,10.771,0,0,1,1.125-2.376,10.625,10.625,0,0,1,1.633-1.995A11.348,11.348,0,0,1-25.733-11h-13.7v-2.121h28q1.06,0,1.06-.892h1.909c.028.17.049.312.064.424a2.7,2.7,0,0,1,.021.34,1.872,1.872,0,0,1-.658,1.442,2.04,2.04,0,0,1-1.379.593h-2.461A10.185,10.185,0,0,1-9.357-7.588a9.3,9.3,0,0,1,1.315,4.73m-1.909-.381A7.382,7.382,0,0,0-10.418-5.7,9.419,9.419,0,0,0-11.712-8.14a9.428,9.428,0,0,0-1.888-1.93A4.506,4.506,0,0,0-15.891-11h-7.255a8.736,8.736,0,0,0-2.27,1.336,9.9,9.9,0,0,0-1.867,1.973,10.071,10.071,0,0,0-1.251,2.376A7.153,7.153,0,0,0-29-2.858,7.342,7.342,0,0,0-28.173.621,8.658,8.658,0,0,0-26.01,3.294a9.765,9.765,0,0,0,3.055,1.7,10.779,10.779,0,0,0,3.543.593,9.606,9.606,0,0,0,3.606-.678,9.748,9.748,0,0,0,3.012-1.888,9.151,9.151,0,0,0,2.079-2.8,7.89,7.89,0,0,0,.763-3.457" transform="translate(39.438 14.016)"/></g><g transform="translate(27.845 134.28)"><path class="c" d="M-5.858-2.739A10.277,10.277,0,0,1-6.77,1.589a10.684,10.684,0,0,1-2.5,3.457,11.819,11.819,0,0,1-3.67,2.291,11.933,11.933,0,0,1-4.455.827,11.663,11.663,0,0,1-4.391-.827,11.568,11.568,0,0,1-3.606-2.27,10.536,10.536,0,0,1-2.439-3.415,10.225,10.225,0,0,1-.891-4.264,10.289,10.289,0,0,1,.912-4.327,10.78,10.78,0,0,1,2.461-3.437,11.277,11.277,0,0,1,3.606-2.249A11.818,11.818,0,0,1-17.4-13.43h.53a1.16,1.16,0,0,1,.4.042V5.959a9.834,9.834,0,0,0,3.543-.891A10.036,10.036,0,0,0-10.1,3.137,8.669,8.669,0,0,0-8.233.443a7.943,7.943,0,0,0,.678-3.267,8.1,8.1,0,0,0-.318-2.249,9.2,9.2,0,0,0-.87-2.057,7.417,7.417,0,0,0-1.337-1.7A6.261,6.261,0,0,0-11.8-9.993l.509-1.867A7.027,7.027,0,0,1-9.1-10.482,9.334,9.334,0,0,1-7.384-8.36,10.829,10.829,0,0,1-6.26-5.709a11,11,0,0,1,.4,2.97m-12.3-8.655a10.027,10.027,0,0,0-3.564.869A9.532,9.532,0,0,0-24.5-8.615a8.58,8.58,0,0,0-1.824,2.694,8.169,8.169,0,0,0-.658,3.267A8.168,8.168,0,0,0-26.328.613,8.592,8.592,0,0,0-24.5,3.308a8.833,8.833,0,0,0,2.8,1.866A10.752,10.752,0,0,0-18.161,6Z" transform="translate(28.725 13.43)"/></g></g><g transform="translate(19.3 -394.34)"><path class="d" d="M-1.4,0V10.238H25.168v6.179H-1.4V26.656H-6.856V0Z" transform="translate(6.856)"/></g><path class="d" d="M56.254-374.711H23.615v-6.345H56.254Z" transform="translate(-4.816 -24.245)"/><g class="b" transform="translate(0 -499.949)"><g transform="translate(0.001 63.303)"><path class="d" d="M-2.437-1.253H15.705a7.186,7.186,0,0,1,3.336.8,9.472,9.472,0,0,1,2.8,2.223,11.034,11.034,0,0,1,2.8-2.179,6.89,6.89,0,0,1,3.335-.845H47.1V-6.144h9.516V7.373a2.263,2.263,0,0,1-.534,1.334,2.553,2.553,0,0,1-2.134.712H31.891a6.086,6.086,0,0,0-3.957,1.334,5.324,5.324,0,0,0-2,3.113h-8.36a3.212,3.212,0,0,0-.533-1.735,4.663,4.663,0,0,0-1.423-1.423,9.142,9.142,0,0,0-1.868-.934,5.688,5.688,0,0,0-1.957-.356H-9.285q-1.688,0-2.179-.756a2.522,2.522,0,0,1-.489-1.29V-6.144h9.516Z" transform="translate(11.953 6.144)"/></g><g transform="translate(0 0)"><path class="d" d="M-2.437-5.149h-9.516V-18.756A2.71,2.71,0,0,1-11.464-20q.49-.8,2.179-.8H11.793a5.688,5.688,0,0,0,1.957-.356,9.022,9.022,0,0,0,1.868-.934,4.868,4.868,0,0,0,1.423-1.379,3.132,3.132,0,0,0,.533-1.778h8.36a5.322,5.322,0,0,0,2,3.113A6.091,6.091,0,0,0,31.891-20.8H53.947a2.474,2.474,0,0,1,2.134.756,2.383,2.383,0,0,1,.534,1.289V-5.149H47.1V-10.04H27.978a6.873,6.873,0,0,1-3.335-.845,10.164,10.164,0,0,1-2.8-2.267,10.141,10.141,0,0,1-2.8,2.267,6.867,6.867,0,0,1-3.336.845H-2.437Z" transform="translate(11.953 25.248)"/></g><g transform="translate(21.018 25.037)"><path class="d" d="M-5.82-.238-11.3,8.146-16.873-.192a2.06,2.06,0,0,0-2.848-.567L-22.32.976a2.06,2.06,0,0,0-.566,2.848l4.851,7.263h-8.454a2.059,2.059,0,0,0-2.053,2.054v3.125a2.059,2.059,0,0,0,2.053,2.053h8.534l-4.818,7.368a2.061,2.061,0,0,0,.595,2.843l2.616,1.71a2.059,2.059,0,0,0,2.842-.6l5.482-8.384L-5.666,29.6a2.06,2.06,0,0,0,2.848.567l2.6-1.736a2.06,2.06,0,0,0,.567-2.848L-4.5,18.319H4.509a2.059,2.059,0,0,0,2.054-2.053V13.141a2.06,2.06,0,0,0-2.054-2.054H-4.585L.233,3.72A2.059,2.059,0,0,0-.362.878L-2.977-.832A2.06,2.06,0,0,0-5.82-.238" transform="translate(28.541 1.165)"/></g><g transform="translate(9.876 36.014)"><path class="d" d="M-1.222,0A4.772,4.772,0,0,1,3.549,4.772,4.772,4.772,0,0,1-1.222,9.543,4.771,4.771,0,0,1-5.994,4.772,4.772,4.772,0,0,1-1.222,0" transform="translate(5.994)"/></g></g></g></svg>